Coordinates
version=1
nRows=12
nColumns=24
inDegrees=yes

Units are S.I. units (second, meters, Newtons, ...)
Angles are in degrees.

endheader
time	pelvis_tilt	pelvis_list	pelvis_rotation	pelvis_tx	pelvis_ty	pelvis_tz	hip_flexion_r	hip_adduction_r	hip_rotation_r	knee_angle_r	ankle_angle_r	subtalar_angle_r	mtp_angle_r	hip_flexion_l	hip_adduction_l	hip_rotation_l	knee_angle_l	ankle_angle_l	subtalar_angle_l	mtp_angle_l	lumbar_extension	lumbar_bending	lumbar_rotation
      1.71500000	     27.32470344	     -2.12075879	      0.85428460	      0.46946139	      0.92352399	      0.00583520	    -30.97994630	      4.29068306	     13.68456068	      4.83058072	      0.60555691	     -9.05949097	     26.79306378	    -16.89142737	     -1.69486177	     -1.60809584	    -53.99762807	      1.01725681	    -22.68501561	     22.99720026	    -35.42883427	      4.58140633	      6.13762223
      1.72000000	     27.34269302	     -1.95909815	      0.57158522	      0.47544303	      0.92374656	      0.00635311	    -31.70988144	      3.93835679	     14.00924349	      5.42494871	      0.56148462	     -9.15924120	     26.72758143	    -16.25671357	     -1.28715148	     -1.48119630	    -53.25887232	      1.57496331	    -22.57944314	     22.97265082	    -35.47715207	      4.26315858	      6.32238020
      1.72500000	     27.36774771	     -1.81270433	      0.30686532	      0.48137764	      0.92387104	      0.00681994	    -32.45363066	      3.59468171	     14.41835243	      6.04704983	      0.46538315	     -9.42755449	     26.64043167	    -15.63931021	     -0.88967421	     -1.31096262	    -52.45316843	      2.09677404	    -22.47421938	     22.93103629	    -35.53757766	      3.97139910	      6.49207828
      1.73000000	     27.37538269	     -1.66308955	      0.04210500	      0.48734909	      0.92388396	      0.00727210	    -33.17404965	      3.24403044	     14.79641726	      6.66015238	      0.38538039	     -9.71944033	     26.56975477	    -15.02338994	     -0.48841288	     -1.13902828	    -51.57089444	      2.55585410	    -22.42651393	     22.89448941	    -35.57388806	      3.67597414	      6.66141521
      1.73500000	     27.34739805	     -1.56929081	     -0.19294690	      0.49322940	      0.92373445	      0.00764126	    -33.86854027	      2.93623642	     15.40572231	      7.33374984	      0.10297161	    -10.53417238	     26.44697608	    -14.35918142	     -0.14868249	     -0.93112385	    -50.66775639	      3.02576781	    -22.43885662	     22.77083250	    -35.58343600	      3.45858984	      6.82003507
      1.74000000	     27.36053948	     -1.44931315	     -0.42074223	      0.49912276	      0.92356403	      0.00798558	    -34.58831297	      2.60696381	     15.87651581	      7.95706355	     -0.04112066	    -11.03564516	     26.42358981	    -13.77396509	      0.22313512	     -0.68324404	    -49.65819315	      3.38639052	    -22.48265548	     22.65820864	    -35.63389149	      3.21743418	      6.96309731
      1.74500000	     27.37623382	     -1.34528997	     -0.63664046	      0.50498191	      0.92330116	      0.00829817	    -35.30076689	      2.29103658	     16.37100009	      8.56933024	     -0.19779205	    -11.62763735	     26.41990912	    -13.20783900	      0.57519764	     -0.40523723	    -48.58622411	      3.69358439	    -22.56392383	     22.54868885	    -35.69144867	      2.99908655	      7.10762720
      1.75000000	     27.39309578	     -1.25582826	     -0.83109938	      0.51084055	      0.92295058	      0.00856315	    -36.00868455	      1.99365773	     16.84600702	      9.17215002	     -0.33280392	    -12.20651424	     26.44000605	    -12.65875540	      0.89983593	     -0.10898175	    -47.45981596	      3.94999741	    -22.69746512	     22.45452238	    -35.74948625	      2.80823619	      7.23387408
      1.75500000	     27.41254496	     -1.17691639	     -1.01877616	      0.51665346	      0.92252167	      0.00880288	    -36.70047745	      1.70728103	     17.32314083	      9.74469121	     -0.47297346	    -12.84948483	     26.47750655	    -12.13124544	      1.21209726	      0.22180108	    -46.27130726	      4.14178965	    -22.88212054	     22.36284856	    -35.81705250	      2.63180874	      7.36073021
      1.76000000	     27.47812522	     -1.11206647	     -1.18212301	      0.52244958	      0.92206870	      0.00900372	    -37.42000264	      1.45034230	     17.69748439	     10.26165779	     -0.49442644	    -13.20647840	     26.49355117	    -11.67849359	      1.49041475	      0.57229771	    -45.01955868	      4.30485987	    -23.00751868	     22.32061564	    -35.93651367	      2.48161258	      7.45636622
      1.76500000	     27.47414653	     -1.08168220	     -1.33076406	      0.52822991	      0.92143192	      0.00917127	    -38.07391441	      1.22198522	     18.20044627	     10.82243715	     -0.67504118	    -14.03466610	     26.50849719	    -11.15053249	      1.72781535	      0.94790037	    -43.75476356	      4.38677755	    -23.44706243	     22.22905467	    -35.98540579	      2.37401014	      7.58483163
      1.77000000	     27.50387704	     -1.05952809	     -1.46961998	      0.53398825	      0.92077638	      0.00931953	    -38.72986434	      1.01594102	     18.60235675	     11.30311252	     -0.73941114	    -14.61185279	     26.57050497	    -10.68816947	      1.93843017	      1.33688830	    -42.42627365	      4.44872096	    -23.76844913	     22.16626030	    -36.07513861	      2.28021732	      7.70020758
